<?xml version="1.0" encoding="utf-8"?>
<!-- Generator: Adobe Illustrator 25.2.0, SVG Export Plug-In . SVG Version: 6.00 Build 0)  -->
<svg version="1.1" xmlns="http://www.w3.org/2000/svg" xmlns:xlink="http://www.w3.org/1999/xlink" x="0px" y="0px"
	 viewBox="0 0 115 115" style="enable-background:new 0 0 115 115;" xml:space="preserve">
<style type="text/css">
	.st0{fill:#3D414F;}
	.st1{fill:none;stroke:#F0F0F0;stroke-width:8;}
	.st2{fill:#F0F0F0;}
</style>
<g id="Layer_1">
	<g id="Rectangle_29" transform="translate(278 1286)">
		<path class="st0" d="M-220.5-1278L-220.5-1278c27.3,0,49.5,22.2,49.5,49.5l0,0c0,27.3-22.2,49.5-49.5,49.5l0,0
			c-27.3,0-49.5-22.2-49.5-49.5l0,0C-270-1255.8-247.8-1278-220.5-1278z"/>
		<path class="st1" d="M-220.5-1282L-220.5-1282c29.5,0,53.5,24,53.5,53.5l0,0c0,29.5-24,53.5-53.5,53.5l0,0
			c-29.5,0-53.5-24-53.5-53.5l0,0C-274-1258-250-1282-220.5-1282z"/>
	</g>
</g>
<g id="Layer_2">
	<g id="_019-idea" transform="translate(-61.999 0)">
		<path id="Path_35" class="st2" d="M127.2,82.9c-1.4-0.5-3,0.3-3.4,1.8L123,87h-7.1l-0.8-2.3c-0.4-1.5-1.9-2.3-3.4-1.9
			c-1.5,0.4-2.3,1.9-1.9,3.4c0,0.1,0,0.1,0.1,0.2l1.4,4.2c0.4,1.1,1.4,1.9,2.6,1.9H125c1.2,0,2.2-0.8,2.6-1.9l1.4-4.2
			C129.4,84.9,128.6,83.4,127.2,82.9z"/>
		<path id="Path_36" class="st2" d="M119.5,22.5"/>
		<path id="Path_37" class="st2" d="M138.1,29.5c-10.7-9.3-26.6-9.3-37.3,0c-5.1,4.7-7.9,11.3-7.9,18.2c0,7.3,3.1,15,9,22.1
			c2.6,3.2,5.6,6.1,8.9,8.6c0.5,0.3,1,0.5,1.6,0.5h13.8c0.6,0,1.1-0.2,1.6-0.5c3.3-2.5,6.3-5.4,9-8.6c6-7.1,9.1-14.8,9.1-22.1
			C146.1,40.8,143.2,34.2,138.1,29.5z M125.4,73.4h-12c-3-2.4-15-12.8-15-25.7c0-11.2,9-19.7,21.1-19.7c12,0,21.1,8.5,21.1,19.7
			C140.6,60.6,128.4,71,125.4,73.4z"/>
		<g id="Group_29" transform="translate(78.542 19.55)">
			<path id="Path_38" class="st2" d="M40.7,22.5"/>
			<path id="Path_39" class="st2" d="M49.1,25.2c-5.1-3.7-12-3.6-17,0.2c-1.2,0.9-1.5,2.6-0.6,3.8c0.9,1.2,2.6,1.5,3.8,0.6
				c0.8-0.5,1.7-1,2.6-1.3V43c0,1.5,1.2,2.7,2.7,2.7s2.7-1.2,2.7-2.7V28.5c0.9,0.3,1.8,0.8,2.6,1.3l0,0l0,0c1.2,0.9,2.9,0.7,3.8-0.5
				s0.7-2.9-0.5-3.8C49.2,25.3,49.1,25.3,49.1,25.2L49.1,25.2z"/>
		</g>
	</g>
</g>
</svg>
