<?xml version="1.0" encoding="utf-8"?>
<!-- Generator: Adobe Illustrator 25.2.0, SVG Export Plug-In . SVG Version: 6.00 Build 0)  -->
<svg version="1.1" xmlns="http://www.w3.org/2000/svg" xmlns:xlink="http://www.w3.org/1999/xlink" x="0px" y="0px"
	 viewBox="0 0 115 115" style="enable-background:new 0 0 115 115;" xml:space="preserve">
<style type="text/css">
	.st0{fill:#3D414F;}
	.st1{fill:none;stroke:#F0F0F0;stroke-width:8;}
	.st2{fill:#F0F0F0;}
</style>
<g id="Layer_1">
	<g id="Rectangle_29" transform="translate(278 1286)">
		<path class="st0" d="M-220.5-1278L-220.5-1278c27.3,0,49.5,22.2,49.5,49.5l0,0c0,27.3-22.2,49.5-49.5,49.5l0,0
			c-27.3,0-49.5-22.2-49.5-49.5l0,0C-270-1255.8-247.8-1278-220.5-1278z"/>
		<path class="st1" d="M-220.5-1282L-220.5-1282c29.5,0,53.5,24,53.5,53.5l0,0c0,29.5-24,53.5-53.5,53.5l0,0
			c-29.5,0-53.5-24-53.5-53.5l0,0C-274-1258-250-1282-220.5-1282z"/>
	</g>
</g>
<g id="Layer_2">
	<path id="_027-tasks" class="st2" d="M47.8,47h-8.1c-4,0-7.2-3.3-7.1-7.3c0-3.9,3.2-7.1,7.1-7.1h8.2c1.1,0,2,0.9,2,2
		c0,1.1-0.9,2-2,2l0,0h-8.2c-1.8,0-3.3,1.5-3.3,3.3c0,1.8,1.5,3.3,3.3,3.3h8.1c1.1,0,2,0.9,2,2S48.9,47,47.8,47L47.8,47z M82.5,39.7
		c0-4-3.2-7.2-7.2-7.2H55.7c-1.1,0-2,0.9-2,2c0,1.1,0.9,2,2,2h19.5c1.8,0,3.3,1.5,3.3,3.3S77.1,43,75.2,43H55.6c-1.1,0-2,0.9-2,2
		s0.9,2,2,2h19.6C79.2,46.9,82.5,43.7,82.5,39.7z M82.4,57.5c0-4-3.2-7.2-7.2-7.2h-2.7c-1.1,0-2,0.9-2,2s0.9,2,2,2h2.7
		c1.8,0,3.3,1.5,3.3,3.3c0,1.8-1.5,3.3-3.3,3.3l0,0h-2.7c-1.1,0-2,0.9-2,2c0,1.1,0.9,2,2,2c0,0,0,0,0,0h2.7
		C79.1,64.7,82.4,61.5,82.4,57.5z M66.5,62.8c0-1.1-0.9-2-2-2H39.7c-1.8,0-3.3-1.5-3.3-3.3s1.5-3.3,3.3-3.3h24.9c1.1,0,2-0.9,2-2
		c0-1.1-0.9-2-2-2H39.7c-4,0-7.2,3.3-7.1,7.3c0,3.9,3.2,7.1,7.1,7.1h24.9C65.7,64.7,66.5,63.9,66.5,62.8
		C66.5,62.8,66.5,62.8,66.5,62.8L66.5,62.8z M82.4,75.3c0-4-3.2-7.2-7.2-7.2H60.5c-1.1,0-2,0.9-2,2s0.9,2,2,2c0,0,0,0,0,0h14.6
		c1.8,0,3.3,1.5,3.3,3.3s-1.5,3.3-3.3,3.3H60.5c-1.1,0-2,0.9-2,2c0,1.1,0.9,2,2,2h14.6C79.1,82.5,82.4,79.3,82.4,75.3z M54.6,80.5
		c0-1.1-0.9-2-2-2h-13c-1.8,0-3.3-1.5-3.3-3.3s1.5-3.3,3.3-3.3h13c1.1,0,2-0.9,2-2c0-1.1-0.9-2-2-2c0,0,0,0,0,0h-13
		c-4,0-7.2,3.3-7.1,7.3c0,3.9,3.2,7.1,7.1,7.1h13C53.8,82.5,54.6,81.6,54.6,80.5z"/>
</g>
</svg>
