<?xml version="1.0" encoding="utf-8"?>
<!-- Generator: Adobe Illustrator 25.2.0, SVG Export Plug-In . SVG Version: 6.00 Build 0)  -->
<svg version="1.1" id="Layer_1" xmlns="http://www.w3.org/2000/svg" xmlns:xlink="http://www.w3.org/1999/xlink" x="0px" y="0px"
	 viewBox="0 0 789 188" style="enable-background:new 0 0 789 188;" xml:space="preserve">
<style type="text/css">
	.st0{fill:#5E647B;}
	.st1{enable-background:new    ;}
	.st2{fill:#F0F0F0;}
</style>
<circle id="Ellipse_12" class="st0" cx="94" cy="94" r="94"/>
<circle id="Ellipse_12-2" class="st0" cx="294" cy="94" r="94"/>
<circle id="Ellipse_12-3" class="st0" cx="495" cy="94" r="94"/>
<circle id="Ellipse_12-4" class="st0" cx="695" cy="94" r="94"/>
<g class="st1">
	<path class="st2" d="M57.6,66.1c2.3,0,4.2,0.5,5.5,1.4s2,2.3,2,4.1c0,0.9-0.2,1.7-0.7,2.5c-0.5,0.7-1.2,1.3-2.1,1.6
		c1.2,0.3,2.1,0.8,2.7,1.6c0.6,0.8,0.9,1.8,0.9,2.9c0,1.9-0.6,3.3-1.9,4.3s-3,1.5-5.3,1.5h-9.8v-2.4l2.1-0.4V68.9l-2.1-0.4v-2.4h2.1
		H57.6z M54.9,74.4h2.9c1.1,0,1.9-0.2,2.5-0.7s0.9-1.1,0.9-1.9c0-0.9-0.3-1.6-0.9-2c-0.6-0.4-1.4-0.7-2.6-0.7h-2.7V74.4z M54.9,77.2
		v5.7h3.7c1.1,0,1.9-0.2,2.4-0.7c0.6-0.5,0.8-1.1,0.8-2c0-1-0.2-1.7-0.7-2.2c-0.5-0.5-1.2-0.8-2.2-0.8H54.9z"/>
	<path class="st2" d="M74.4,86.3c-2.1,0-3.8-0.7-5.1-2.1c-1.3-1.4-1.9-3.1-1.9-5.2v-0.5c0-2.2,0.6-4,1.8-5.4
		c1.2-1.4,2.8-2.1,4.9-2.1c2,0,3.5,0.6,4.6,1.8c1.1,1.2,1.7,2.8,1.7,4.9v2.2h-8.8l0,0.1c0.1,1,0.4,1.8,1,2.4
		c0.6,0.6,1.4,0.9,2.4,0.9c0.9,0,1.6-0.1,2.2-0.3c0.6-0.2,1.2-0.5,1.9-0.8l1.1,2.5c-0.6,0.5-1.4,0.9-2.4,1.2S75.6,86.3,74.4,86.3z
		 M74.1,74c-0.7,0-1.3,0.3-1.8,0.8c-0.4,0.6-0.7,1.3-0.8,2.2l0,0.1h4.9v-0.4c0-0.8-0.2-1.5-0.6-2S74.9,74,74.1,74z"/>
	<path class="st2" d="M88.2,67.6v3.6h2.6V74h-2.6v7.5c0,0.6,0.1,1,0.4,1.2c0.2,0.2,0.6,0.4,1,0.4c0.3,0,0.5,0,0.7,0s0.4-0.1,0.7-0.1
		l0.3,2.9c-0.4,0.1-0.9,0.2-1.3,0.3s-0.9,0.1-1.4,0.1c-1.4,0-2.4-0.4-3.2-1.1c-0.7-0.8-1.1-2-1.1-3.6V74H82v-2.8h2.2v-3.6H88.2z"/>
	<path class="st2" d="M98.6,67.6v3.6h2.6V74h-2.6v7.5c0,0.6,0.1,1,0.4,1.2c0.2,0.2,0.6,0.4,1,0.4c0.3,0,0.5,0,0.7,0s0.4-0.1,0.7-0.1
		l0.3,2.9c-0.4,0.1-0.9,0.2-1.3,0.3s-0.9,0.1-1.4,0.1c-1.4,0-2.4-0.4-3.2-1.1c-0.7-0.8-1.1-2-1.1-3.6V74h-2.2v-2.8h2.2v-3.6H98.6z"
		/>
	<path class="st2" d="M110.2,86.3c-2.1,0-3.8-0.7-5.1-2.1c-1.3-1.4-1.9-3.1-1.9-5.2v-0.5c0-2.2,0.6-4,1.8-5.4
		c1.2-1.4,2.8-2.1,4.9-2.1c2,0,3.5,0.6,4.6,1.8c1.1,1.2,1.7,2.8,1.7,4.9v2.2h-8.8l0,0.1c0.1,1,0.4,1.8,1,2.4
		c0.6,0.6,1.4,0.9,2.4,0.9c0.9,0,1.6-0.1,2.2-0.3c0.6-0.2,1.2-0.5,1.9-0.8l1.1,2.5c-0.6,0.5-1.4,0.9-2.4,1.2S111.4,86.3,110.2,86.3z
		 M109.9,74c-0.7,0-1.3,0.3-1.8,0.8c-0.4,0.6-0.7,1.3-0.8,2.2l0,0.1h4.9v-0.4c0-0.8-0.2-1.5-0.6-2S110.7,74,109.9,74z"/>
	<path class="st2" d="M118.4,83.6l1.9-0.4V74l-2.1-0.4v-2.4h5.8l0.2,2.2c0.3-0.8,0.8-1.4,1.3-1.8s1.2-0.6,1.9-0.6c0.2,0,0.4,0,0.7,0
		s0.4,0.1,0.6,0.1l-0.4,3.6l-1.6,0c-0.6,0-1.1,0.1-1.4,0.3s-0.7,0.6-0.9,1v7.2l1.9,0.4V86h-7.8V83.6z"/>
</g>
<g class="st1">
	<path class="st2" d="M31.7,120.6l2.1-0.4v-14.3l-2.1-0.4v-2.4h15.8v5.5h-3.1l-0.2-2.4h-6.5v5.5h7v3.1h-7v5.5l2.1,0.4v2.4h-8.2
		V120.6z"/>
	<path class="st2" d="M49,120.6l1.9-0.4V111l-2.1-0.4v-2.4h6.1v12l1.9,0.4v2.4H49V120.6z M54.9,104.7h-4v-3h4V104.7z"/>
	<path class="st2" d="M57.7,104.1v-2.4h6.1v18.5l1.9,0.4v2.4h-7.8v-2.4l1.9-0.4v-15.7L57.7,104.1z"/>
	<path class="st2" d="M73,104.6v3.6h2.6v2.8H73v7.5c0,0.6,0.1,1,0.4,1.2c0.2,0.2,0.6,0.4,1,0.4c0.3,0,0.5,0,0.7,0s0.4-0.1,0.7-0.1
		l0.3,2.9c-0.4,0.1-0.9,0.2-1.3,0.3s-0.9,0.1-1.4,0.1c-1.4,0-2.4-0.4-3.2-1.1c-0.7-0.8-1.1-2-1.1-3.6V111h-2.2v-2.8H69v-3.6H73z"/>
	<path class="st2" d="M84.6,123.3c-2.1,0-3.8-0.7-5.1-2.1c-1.3-1.4-1.9-3.1-1.9-5.2v-0.5c0-2.2,0.6-4,1.8-5.4
		c1.2-1.4,2.8-2.1,4.9-2.1c2,0,3.5,0.6,4.6,1.8c1.1,1.2,1.7,2.8,1.7,4.9v2.2h-8.8l0,0.1c0.1,1,0.4,1.8,1,2.4
		c0.6,0.6,1.4,0.9,2.4,0.9c0.9,0,1.6-0.1,2.2-0.3c0.6-0.2,1.2-0.5,1.9-0.8l1.1,2.5c-0.6,0.5-1.4,0.9-2.4,1.2S85.8,123.3,84.6,123.3z
		 M84.2,111c-0.7,0-1.3,0.3-1.8,0.8c-0.4,0.6-0.7,1.3-0.8,2.2l0,0.1h4.9v-0.4c0-0.8-0.2-1.5-0.6-2S85,111,84.2,111z"/>
	<path class="st2" d="M92.7,120.6l1.9-0.4V111l-2.1-0.4v-2.4h5.8l0.2,2.2c0.3-0.8,0.8-1.4,1.3-1.8s1.2-0.6,1.9-0.6
		c0.2,0,0.4,0,0.7,0s0.4,0.1,0.6,0.1l-0.4,3.6l-1.6,0c-0.6,0-1.1,0.1-1.4,0.3s-0.7,0.6-0.9,1v7.2l1.9,0.4v2.4h-7.8V120.6z"/>
	<path class="st2" d="M104.1,120.6l1.9-0.4V111l-2.1-0.4v-2.4h6.1v12l1.9,0.4v2.4h-7.8V120.6z M110,104.7h-4v-3h4V104.7z"/>
	<path class="st2" d="M113,120.6l1.9-0.4V111l-2.1-0.4v-2.4h5.8l0.2,2.1c0.5-0.8,1.1-1.3,1.8-1.8c0.7-0.4,1.5-0.6,2.4-0.6
		c1.5,0,2.7,0.5,3.5,1.4c0.8,0.9,1.3,2.4,1.3,4.4v6.4l1.9,0.4v2.4h-7.6v-2.4l1.7-0.4v-6.4c0-1-0.2-1.7-0.6-2.1
		c-0.4-0.4-1-0.6-1.8-0.6c-0.5,0-1,0.1-1.4,0.3c-0.4,0.2-0.8,0.5-1.1,0.9v7.9l1.6,0.4v2.4H113V120.6z"/>
	<path class="st2" d="M131.1,115.7c0-2.3,0.5-4.2,1.5-5.6c1-1.4,2.4-2.1,4.3-2.1c0.8,0,1.6,0.2,2.2,0.6s1.2,0.9,1.6,1.6l0.3-1.9h3.5
		v14.4c0,2-0.6,3.5-1.8,4.7c-1.2,1.2-2.9,1.7-5.1,1.7c-0.7,0-1.5-0.1-2.4-0.3c-0.8-0.2-1.6-0.5-2.3-0.8l0.7-2.8
		c0.6,0.3,1.3,0.5,1.9,0.6c0.6,0.2,1.3,0.2,2,0.2c1,0,1.7-0.3,2.2-0.9c0.5-0.6,0.7-1.4,0.7-2.5v-1c-0.4,0.6-1,1-1.5,1.3
		c-0.6,0.3-1.3,0.4-2,0.4c-1.8,0-3.2-0.7-4.2-2c-1-1.3-1.5-3.1-1.5-5.3V115.7z M135.1,116c0,1.3,0.2,2.3,0.7,3.1s1.1,1.1,2.1,1.1
		c0.6,0,1.1-0.1,1.6-0.3s0.8-0.5,1-1v-6.4c-0.3-0.4-0.6-0.8-1-1s-0.9-0.4-1.5-0.4c-1,0-1.7,0.4-2.1,1.3s-0.7,2-0.7,3.4V116z"/>
</g>
<g class="st1">
	<path class="st2" d="M277.7,50.5l-1.6,0.2L272,68h-3.7l-3.7-13.1h-0.1L260.9,68h-3.7l-4.1-17.3l-1.6-0.2v-2.4h7.3v2.4l-1.8,0.3
		l2.3,10.9l0.1,0l3.7-13.6h2.9l3.8,13.6l0.1,0l2.3-10.9l-1.8-0.3v-2.4h7.3V50.5z"/>
	<path class="st2" d="M287.9,68c-0.1-0.2-0.2-0.5-0.3-0.8s-0.1-0.5-0.2-0.8c-0.5,0.5-1.1,1-1.7,1.3c-0.7,0.3-1.5,0.5-2.3,0.5
		c-1.4,0-2.6-0.4-3.5-1.2c-0.9-0.8-1.3-1.9-1.3-3.2c0-1.4,0.6-2.5,1.7-3.2c1.1-0.8,2.7-1.1,4.9-1.1h2v-1.4c0-0.7-0.2-1.3-0.6-1.7
		s-1-0.6-1.8-0.6c-0.5,0-0.9,0.1-1.2,0.2s-0.6,0.2-0.9,0.4l-0.3,1.6h-3l0-3.3c0.7-0.5,1.6-0.9,2.5-1.2s2-0.5,3.1-0.5
		c1.8,0,3.3,0.4,4.5,1.3c1.1,0.9,1.7,2.2,1.7,3.8v6.1c0,0.2,0,0.4,0,0.6c0,0.2,0,0.4,0,0.6l1.2,0.2V68H287.9z M284.4,65.3
		c0.6,0,1.1-0.1,1.6-0.4s0.9-0.6,1.1-1v-2.3h-2c-0.8,0-1.5,0.2-1.9,0.6s-0.7,0.9-0.7,1.4c0,0.5,0.2,0.9,0.5,1.2
		C283.4,65.2,283.9,65.3,284.4,65.3z"/>
	<path class="st2" d="M298.7,49.6v3.6h2.6V56h-2.6v7.5c0,0.6,0.1,1,0.4,1.2c0.2,0.2,0.6,0.4,1,0.4c0.3,0,0.5,0,0.7,0
		s0.4-0.1,0.7-0.1l0.3,2.9c-0.4,0.1-0.9,0.2-1.3,0.3s-0.9,0.1-1.4,0.1c-1.4,0-2.4-0.4-3.2-1.1c-0.7-0.8-1.1-2-1.1-3.6V56h-2.2v-2.8
		h2.2v-3.6H298.7z"/>
	<path class="st2" d="M310.2,65.2c0.7,0,1.3-0.2,1.7-0.6c0.4-0.4,0.6-1,0.6-1.7h3.6l0,0.1c0,1.5-0.5,2.7-1.7,3.8
		c-1.2,1-2.6,1.5-4.3,1.5c-2.2,0-3.9-0.7-5.1-2.1c-1.2-1.4-1.8-3.2-1.8-5.4v-0.4c0-2.2,0.6-4,1.8-5.4c1.2-1.4,3-2.1,5.2-2.1
		c1.2,0,2.3,0.2,3.2,0.5c0.9,0.4,1.7,0.9,2.4,1.5l0.1,4h-3.2l-0.7-2.3c-0.2-0.2-0.4-0.3-0.7-0.4c-0.3-0.1-0.6-0.2-1-0.2
		c-1.1,0-1.9,0.4-2.4,1.2s-0.7,1.9-0.7,3.2v0.4c0,1.3,0.2,2.4,0.6,3.2C308.3,64.8,309.1,65.2,310.2,65.2z"/>
	<path class="st2" d="M317.7,65.6l1.9-0.4V49.5l-2.1-0.4v-2.4h6.1v8.4c0.5-0.7,1-1.2,1.7-1.6c0.7-0.4,1.4-0.6,2.2-0.6
		c1.5,0,2.8,0.5,3.6,1.5c0.9,1,1.3,2.6,1.3,4.8v6l1.9,0.4V68h-7.6v-2.4l1.7-0.4v-6c0-1.1-0.2-2-0.6-2.4c-0.4-0.5-1-0.7-1.8-0.7
		c-0.6,0-1,0.1-1.5,0.3c-0.4,0.2-0.8,0.5-1,0.8v8l1.7,0.4V68h-7.6V65.6z"/>
</g>
<g class="st1">
	<path class="st2" d="M287.4,87.5l-1.6,0.2l-4,17.3h-3.7l-3.7-13.1h-0.1l-3.7,13.1H267l-4.1-17.3l-1.6-0.2v-2.4h7.3v2.4l-1.8,0.3
		l2.3,10.9l0.1,0l3.7-13.6h2.9l3.8,13.6l0.1,0l2.3-10.9l-1.8-0.3v-2.4h7.3V87.5z"/>
	<path class="st2" d="M288.6,102.6l1.9-0.4V93l-2.1-0.4v-2.4h6.1v12l1.9,0.4v2.4h-7.8V102.6z M294.5,86.7h-4v-3h4V86.7z"/>
	<path class="st2" d="M303.6,86.6v3.6h2.6V93h-2.6v7.5c0,0.6,0.1,1,0.4,1.2s0.6,0.4,1,0.4c0.3,0,0.5,0,0.7,0s0.4-0.1,0.7-0.1
		l0.3,2.9c-0.4,0.1-0.9,0.2-1.3,0.3s-0.9,0.1-1.4,0.1c-1.4,0-2.4-0.4-3.2-1.1s-1.1-2-1.1-3.6V93h-2.2v-2.8h2.2v-3.6H303.6z"/>
	<path class="st2" d="M308,102.6l1.9-0.4V86.5l-2.1-0.4v-2.4h6.1v8.4c0.5-0.7,1-1.2,1.7-1.6s1.4-0.6,2.2-0.6c1.5,0,2.8,0.5,3.6,1.5
		s1.3,2.6,1.3,4.8v6l1.9,0.4v2.4h-7.6v-2.4l1.7-0.4v-6c0-1.1-0.2-2-0.6-2.4s-1-0.7-1.8-0.7c-0.6,0-1,0.1-1.5,0.3s-0.8,0.5-1,0.8v8
		l1.7,0.4v2.4H308V102.6z"/>
</g>
<g class="st1">
	<path class="st2" d="M243.1,139.6l2.1-0.4v-14.3l-2.1-0.4v-2.4H259v5.5h-3.1l-0.2-2.4h-6.5v5.5h7v3.1h-7v5.5l2.1,0.4v2.4h-8.2
		V139.6z"/>
	<path class="st2" d="M260.5,139.6l1.9-0.4V130l-2.1-0.4v-2.4h5.8l0.2,2.2c0.3-0.8,0.8-1.4,1.3-1.8s1.2-0.6,1.9-0.6
		c0.2,0,0.4,0,0.7,0s0.4,0.1,0.6,0.1l-0.4,3.6l-1.6,0c-0.6,0-1.1,0.1-1.4,0.3s-0.7,0.6-0.9,1v7.2l1.9,0.4v2.4h-7.8V139.6z"/>
	<path class="st2" d="M271.8,139.6l1.9-0.4V130l-2.1-0.4v-2.4h6.1v12l1.9,0.4v2.4h-7.8V139.6z M277.7,123.7h-4v-3h4V123.7z"/>
	<path class="st2" d="M288.1,142.3c-2.1,0-3.8-0.7-5.1-2.1c-1.3-1.4-1.9-3.1-1.9-5.2v-0.5c0-2.2,0.6-4,1.8-5.4
		c1.2-1.4,2.8-2.1,4.9-2.1c2,0,3.5,0.6,4.6,1.8c1.1,1.2,1.7,2.8,1.7,4.9v2.2h-8.8l0,0.1c0.1,1,0.4,1.8,1,2.4
		c0.6,0.6,1.4,0.9,2.4,0.9c0.9,0,1.6-0.1,2.2-0.3c0.6-0.2,1.2-0.5,1.9-0.8l1.1,2.5c-0.6,0.5-1.4,0.9-2.4,1.2
		S289.2,142.3,288.1,142.3z M287.7,130c-0.7,0-1.3,0.3-1.8,0.8c-0.4,0.6-0.7,1.3-0.8,2.2l0,0.1h4.9v-0.4c0-0.8-0.2-1.5-0.6-2
		S288.5,130,287.7,130z"/>
	<path class="st2" d="M295.7,139.6l1.9-0.4V130l-2.1-0.4v-2.4h5.8l0.2,2.1c0.5-0.8,1.1-1.3,1.8-1.8c0.7-0.4,1.5-0.6,2.4-0.6
		c1.5,0,2.7,0.5,3.5,1.4c0.8,0.9,1.3,2.4,1.3,4.4v6.4l1.9,0.4v2.4h-7.6v-2.4l1.7-0.4v-6.4c0-1-0.2-1.7-0.6-2.1
		c-0.4-0.4-1-0.6-1.8-0.6c-0.5,0-1,0.1-1.4,0.3c-0.4,0.2-0.8,0.5-1.1,0.9v7.9l1.6,0.4v2.4h-7.5V139.6z"/>
	<path class="st2" d="M323.1,140.2c-0.5,0.7-1,1.2-1.6,1.6c-0.6,0.4-1.4,0.5-2.2,0.5c-1.8,0-3.2-0.7-4.2-2c-1-1.3-1.5-3.1-1.5-5.3
		v-0.3c0-2.3,0.5-4.2,1.5-5.6s2.4-2.1,4.3-2.1c0.7,0,1.4,0.2,2,0.5c0.6,0.3,1.1,0.8,1.6,1.4v-5.3l-2.1-0.4v-2.4h2.1h4v18.5l1.9,0.4
		v2.4h-5.4L323.1,140.2z M317.6,135c0,1.3,0.2,2.3,0.6,3.1c0.4,0.7,1.1,1.1,2.1,1.1c0.6,0,1.1-0.1,1.5-0.4c0.4-0.2,0.8-0.6,1.1-1
		v-6.3c-0.3-0.5-0.6-0.8-1-1.1s-0.9-0.4-1.5-0.4c-1,0-1.7,0.4-2.1,1.3c-0.4,0.9-0.7,2-0.7,3.4V135z"/>
	<path class="st2" d="M342.2,132.3h-2.7l-0.4-1.8c-0.3-0.2-0.6-0.4-1-0.5c-0.4-0.1-0.9-0.2-1.4-0.2c-0.7,0-1.3,0.2-1.7,0.5
		s-0.6,0.7-0.6,1.2c0,0.4,0.2,0.8,0.6,1.1c0.4,0.3,1.2,0.6,2.4,0.8c1.8,0.4,3.2,0.9,4.1,1.6c0.9,0.7,1.3,1.7,1.3,2.9
		c0,1.3-0.6,2.4-1.7,3.3c-1.1,0.8-2.7,1.3-4.5,1.3c-1.1,0-2.2-0.2-3.1-0.5c-1-0.3-1.8-0.8-2.5-1.4l0-3.3h2.8l0.5,1.9
		c0.2,0.2,0.6,0.3,1,0.4s0.8,0.1,1.3,0.1c0.8,0,1.4-0.1,1.9-0.4s0.6-0.7,0.6-1.2c0-0.4-0.2-0.8-0.6-1.1c-0.4-0.3-1.2-0.6-2.4-0.8
		c-1.7-0.4-3.1-0.9-3.9-1.6s-1.3-1.6-1.3-2.9c0-1.2,0.5-2.3,1.5-3.2c1-0.9,2.5-1.3,4.4-1.3c1.1,0,2.2,0.2,3.3,0.5s1.8,0.7,2.4,1.2
		L342.2,132.3z"/>
</g>
<g class="st1">
	<path class="st2" d="M438.4,54.5h-3l-0.5-2.7c-0.3-0.2-0.9-0.4-1.5-0.6c-0.7-0.2-1.4-0.2-2.1-0.2c-1.1,0-1.9,0.2-2.5,0.7
		c-0.6,0.5-0.9,1.1-0.9,1.8c0,0.7,0.3,1.2,0.9,1.7c0.6,0.4,1.7,0.9,3.2,1.4c2.2,0.6,3.9,1.4,5,2.4s1.7,2.3,1.7,4c0,1.7-0.7,3-2,4
		c-1.3,1-3.1,1.5-5.3,1.5c-1.6,0-3-0.3-4.3-0.8s-2.3-1.2-3.2-2.1v-4.2h3.1l0.4,2.8c0.4,0.3,0.9,0.6,1.6,0.8c0.7,0.2,1.5,0.3,2.3,0.3
		c1.1,0,1.9-0.2,2.5-0.7c0.6-0.4,0.9-1,0.9-1.8c0-0.8-0.3-1.4-0.8-1.8c-0.5-0.5-1.5-0.9-2.9-1.3c-2.4-0.7-4.1-1.5-5.4-2.4
		c-1.2-0.9-1.8-2.2-1.8-3.9c0-1.6,0.7-2.9,2.1-4s3.1-1.6,5.2-1.6c1.5,0,2.9,0.2,4.2,0.7s2.3,1.1,3.2,1.9V54.5z"/>
	<path class="st2" d="M440.2,65.6l1.9-0.4V49.5l-2.1-0.4v-2.4h6.1v8.4c0.5-0.7,1-1.2,1.7-1.6c0.7-0.4,1.4-0.6,2.2-0.6
		c1.5,0,2.8,0.5,3.6,1.5c0.9,1,1.3,2.6,1.3,4.8v6l1.9,0.4V68h-7.6v-2.4l1.7-0.4v-6c0-1.1-0.2-2-0.6-2.4c-0.4-0.5-1-0.7-1.8-0.7
		c-0.6,0-1,0.1-1.5,0.3c-0.4,0.2-0.8,0.5-1,0.8v8l1.7,0.4V68h-7.6V65.6z"/>
	<path class="st2" d="M467.6,68c-0.1-0.2-0.2-0.5-0.3-0.8s-0.1-0.5-0.2-0.8c-0.5,0.5-1.1,1-1.7,1.3c-0.7,0.3-1.5,0.5-2.3,0.5
		c-1.4,0-2.6-0.4-3.5-1.2c-0.9-0.8-1.3-1.9-1.3-3.2c0-1.4,0.6-2.5,1.7-3.2c1.1-0.8,2.7-1.1,4.9-1.1h2v-1.4c0-0.7-0.2-1.3-0.6-1.7
		s-1-0.6-1.8-0.6c-0.5,0-0.9,0.1-1.2,0.2s-0.6,0.2-0.9,0.4l-0.3,1.6h-3l0-3.3c0.7-0.5,1.6-0.9,2.5-1.2s2-0.5,3.1-0.5
		c1.8,0,3.3,0.4,4.5,1.3c1.1,0.9,1.7,2.2,1.7,3.8v6.1c0,0.2,0,0.4,0,0.6c0,0.2,0,0.4,0,0.6l1.2,0.2V68H467.6z M464.1,65.3
		c0.6,0,1.1-0.1,1.6-0.4s0.9-0.6,1.1-1v-2.3h-2c-0.8,0-1.5,0.2-1.9,0.6s-0.7,0.9-0.7,1.4c0,0.5,0.2,0.9,0.5,1.2
		C463.1,65.2,463.6,65.3,464.1,65.3z"/>
	<path class="st2" d="M473.9,65.6l1.9-0.4V56l-2.1-0.4v-2.4h5.8l0.2,2.2c0.3-0.8,0.8-1.4,1.3-1.8s1.2-0.6,1.9-0.6c0.2,0,0.4,0,0.7,0
		s0.4,0.1,0.6,0.1l-0.4,3.6l-1.6,0c-0.6,0-1.1,0.1-1.4,0.3s-0.7,0.6-0.9,1v7.2l1.9,0.4V68h-7.8V65.6z"/>
	<path class="st2" d="M485.2,65.6l1.9-0.4V56l-2.1-0.4v-2.4h6.1v12l1.9,0.4V68h-7.8V65.6z M491.1,49.7h-4v-3h4V49.7z"/>
	<path class="st2" d="M494.1,65.6l1.9-0.4V56l-2.1-0.4v-2.4h5.8l0.2,2.1c0.5-0.8,1.1-1.3,1.8-1.8c0.7-0.4,1.5-0.6,2.4-0.6
		c1.5,0,2.7,0.5,3.5,1.4c0.8,0.9,1.3,2.4,1.3,4.4v6.4l1.9,0.4V68h-7.6v-2.4l1.7-0.4v-6.4c0-1-0.2-1.7-0.6-2.1
		c-0.4-0.4-1-0.6-1.8-0.6c-0.5,0-1,0.1-1.4,0.3c-0.4,0.2-0.8,0.5-1.1,0.9v7.9l1.6,0.4V68h-7.5V65.6z"/>
	<path class="st2" d="M512.2,60.7c0-2.3,0.5-4.2,1.5-5.6c1-1.4,2.4-2.1,4.3-2.1c0.8,0,1.6,0.2,2.2,0.6s1.2,0.9,1.6,1.6l0.3-1.9h3.5
		v14.4c0,2-0.6,3.5-1.8,4.7c-1.2,1.2-2.9,1.7-5.1,1.7c-0.7,0-1.5-0.1-2.4-0.3c-0.8-0.2-1.6-0.5-2.3-0.8l0.7-2.8
		c0.6,0.3,1.3,0.5,1.9,0.6c0.6,0.2,1.3,0.2,2,0.2c1,0,1.7-0.3,2.2-0.9c0.5-0.6,0.7-1.4,0.7-2.5v-1c-0.4,0.6-1,1-1.5,1.3
		c-0.6,0.3-1.3,0.4-2,0.4c-1.8,0-3.2-0.7-4.2-2c-1-1.3-1.5-3.1-1.5-5.3V60.7z M516.2,61c0,1.3,0.2,2.3,0.7,3.1s1.1,1.1,2.1,1.1
		c0.6,0,1.1-0.1,1.6-0.3s0.8-0.5,1-1v-6.4c-0.3-0.4-0.6-0.8-1-1s-0.9-0.4-1.5-0.4c-1,0-1.7,0.4-2.1,1.3s-0.7,2-0.7,3.4V61z"/>
	<path class="st2" d="M534.9,60.5c0-2.2,0.6-4,1.9-5.4c1.2-1.4,2.9-2.1,5.1-2.1c2.2,0,3.9,0.7,5.1,2.1c1.2,1.4,1.9,3.2,1.9,5.4v0.3
		c0,2.2-0.6,4-1.9,5.4c-1.2,1.4-2.9,2.1-5.1,2.1c-2.2,0-3.9-0.7-5.1-2.1c-1.2-1.4-1.9-3.2-1.9-5.4V60.5z M538.9,60.8
		c0,1.3,0.2,2.4,0.7,3.2c0.5,0.8,1.2,1.2,2.3,1.2c1,0,1.8-0.4,2.3-1.2s0.7-1.9,0.7-3.2v-0.3c0-1.3-0.2-2.4-0.7-3.2
		c-0.5-0.8-1.2-1.2-2.3-1.2s-1.8,0.4-2.3,1.2c-0.5,0.8-0.7,1.9-0.7,3.2V60.8z"/>
	<path class="st2" d="M550.3,65.6l1.9-0.4V56l-2.1-0.4v-2.4h5.8l0.2,2.1c0.5-0.8,1.1-1.3,1.8-1.8c0.7-0.4,1.5-0.6,2.4-0.6
		c1.5,0,2.7,0.5,3.5,1.4c0.8,0.9,1.3,2.4,1.3,4.4v6.4l1.9,0.4V68h-7.6v-2.4l1.7-0.4v-6.4c0-1-0.2-1.7-0.6-2.1
		c-0.4-0.4-1-0.6-1.8-0.6c-0.5,0-1,0.1-1.4,0.3c-0.4,0.2-0.8,0.5-1.1,0.9v7.9l1.6,0.4V68h-7.5V65.6z"/>
</g>
<g class="st1">
	<path class="st2" d="M470.5,91.5h-3l-0.5-2.7c-0.3-0.2-0.9-0.4-1.5-0.6c-0.7-0.2-1.4-0.2-2.1-0.2c-1.1,0-1.9,0.2-2.5,0.7
		c-0.6,0.5-0.9,1.1-0.9,1.8c0,0.7,0.3,1.2,0.9,1.7c0.6,0.4,1.7,0.9,3.2,1.4c2.2,0.6,3.9,1.4,5,2.4s1.7,2.3,1.7,4c0,1.7-0.7,3-2,4
		c-1.3,1-3.1,1.5-5.3,1.5c-1.6,0-3-0.3-4.3-0.8s-2.3-1.2-3.2-2.1v-4.2h3.1l0.4,2.8c0.4,0.3,0.9,0.6,1.6,0.8c0.7,0.2,1.5,0.3,2.3,0.3
		c1.1,0,1.9-0.2,2.5-0.7c0.6-0.4,0.9-1,0.9-1.8c0-0.8-0.3-1.4-0.8-1.8c-0.5-0.5-1.5-0.9-2.9-1.3c-2.4-0.7-4.1-1.5-5.4-2.4
		c-1.2-0.9-1.8-2.2-1.8-3.9c0-1.6,0.7-2.9,2.1-4s3.1-1.6,5.2-1.6c1.5,0,2.9,0.2,4.2,0.7s2.3,1.1,3.2,1.9V91.5z"/>
	<path class="st2" d="M472.5,97.5c0-2.2,0.6-4,1.9-5.4c1.2-1.4,2.9-2.1,5.1-2.1c2.2,0,3.9,0.7,5.1,2.1c1.2,1.4,1.9,3.2,1.9,5.4v0.3
		c0,2.2-0.6,4-1.9,5.4c-1.2,1.4-2.9,2.1-5.1,2.1c-2.2,0-3.9-0.7-5.1-2.1c-1.2-1.4-1.9-3.2-1.9-5.4V97.5z M476.5,97.8
		c0,1.3,0.2,2.4,0.7,3.2c0.5,0.8,1.2,1.2,2.3,1.2c1,0,1.8-0.4,2.3-1.2s0.7-1.9,0.7-3.2v-0.3c0-1.3-0.2-2.4-0.7-3.2
		c-0.5-0.8-1.2-1.2-2.3-1.2s-1.8,0.4-2.3,1.2c-0.5,0.8-0.7,1.9-0.7,3.2V97.8z"/>
	<path class="st2" d="M495.1,102.2c0.7,0,1.3-0.2,1.7-0.6c0.4-0.4,0.6-1,0.6-1.7h3.6l0,0.1c0,1.5-0.5,2.7-1.7,3.8
		c-1.2,1-2.6,1.5-4.3,1.5c-2.2,0-3.9-0.7-5.1-2.1c-1.2-1.4-1.8-3.2-1.8-5.4v-0.4c0-2.2,0.6-4,1.8-5.4c1.2-1.4,3-2.1,5.2-2.1
		c1.2,0,2.3,0.2,3.2,0.5c0.9,0.4,1.7,0.9,2.4,1.5l0.1,4h-3.2l-0.7-2.3c-0.2-0.2-0.4-0.3-0.7-0.4c-0.3-0.1-0.6-0.2-1-0.2
		c-1.1,0-1.9,0.4-2.4,1.2s-0.7,1.9-0.7,3.2v0.4c0,1.3,0.2,2.4,0.6,3.2C493.3,101.8,494,102.2,495.1,102.2z"/>
	<path class="st2" d="M502.8,102.6l1.9-0.4V93l-2.1-0.4v-2.4h6.1v12l1.9,0.4v2.4h-7.8V102.6z M508.7,86.7h-4v-3h4V86.7z"/>
	<path class="st2" d="M521.4,105c-0.1-0.2-0.2-0.5-0.3-0.8s-0.1-0.5-0.2-0.8c-0.5,0.5-1.1,1-1.7,1.3c-0.7,0.3-1.5,0.5-2.3,0.5
		c-1.4,0-2.6-0.4-3.5-1.2c-0.9-0.8-1.3-1.9-1.3-3.2c0-1.4,0.6-2.5,1.7-3.2c1.1-0.8,2.7-1.1,4.9-1.1h2v-1.4c0-0.7-0.2-1.3-0.6-1.7
		s-1-0.6-1.8-0.6c-0.5,0-0.9,0.1-1.2,0.2s-0.6,0.2-0.9,0.4l-0.3,1.6h-3l0-3.3c0.7-0.5,1.6-0.9,2.5-1.2s2-0.5,3.1-0.5
		c1.8,0,3.3,0.4,4.5,1.3c1.1,0.9,1.7,2.2,1.7,3.8v6.1c0,0.2,0,0.4,0,0.6c0,0.2,0,0.4,0,0.6l1.2,0.2v2.4H521.4z M517.9,102.3
		c0.6,0,1.1-0.1,1.6-0.4s0.9-0.6,1.1-1v-2.3h-2c-0.8,0-1.5,0.2-1.9,0.6s-0.7,0.9-0.7,1.4c0,0.5,0.2,0.9,0.5,1.2
		C516.9,102.2,517.3,102.3,517.9,102.3z"/>
	<path class="st2" d="M526.9,86.1v-2.4h6.1v18.5l1.9,0.4v2.4h-7.8v-2.4l1.9-0.4V86.5L526.9,86.1z"/>
</g>
<g class="st1">
	<path class="st2" d="M473.8,127.3L473.8,127.3l-5.4,14.7h-2.7l-5.3-14.7l-0.1,0l0.4,8.7v3.1l2.1,0.4v2.4h-8.2v-2.4l2.1-0.4v-14.3
		l-2.1-0.4v-2.4h2.1h5.2l5.1,14.7h0.1l5.1-14.7h7.4v2.4l-2.1,0.4v14.3l2.1,0.4v2.4h-8.2v-2.4l2.1-0.4v-3.1L473.8,127.3z"/>
	<path class="st2" d="M488.2,142.3c-2.1,0-3.8-0.7-5.1-2.1c-1.3-1.4-1.9-3.1-1.9-5.2v-0.5c0-2.2,0.6-4,1.8-5.4
		c1.2-1.4,2.8-2.1,4.9-2.1c2,0,3.5,0.6,4.6,1.8c1.1,1.2,1.7,2.8,1.7,4.9v2.2h-8.8l0,0.1c0.1,1,0.4,1.8,1,2.4
		c0.6,0.6,1.4,0.9,2.4,0.9c0.9,0,1.6-0.1,2.2-0.3c0.6-0.2,1.2-0.5,1.9-0.8l1.1,2.5c-0.6,0.5-1.4,0.9-2.4,1.2
		S489.4,142.3,488.2,142.3z M487.8,130c-0.7,0-1.3,0.3-1.8,0.8c-0.4,0.6-0.7,1.3-0.8,2.2l0,0.1h4.9v-0.4c0-0.8-0.2-1.5-0.6-2
		S488.6,130,487.8,130z"/>
	<path class="st2" d="M505.6,140.2c-0.5,0.7-1,1.2-1.6,1.6c-0.6,0.4-1.4,0.5-2.2,0.5c-1.8,0-3.2-0.7-4.2-2c-1-1.3-1.5-3.1-1.5-5.3
		v-0.3c0-2.3,0.5-4.2,1.5-5.6s2.4-2.1,4.3-2.1c0.7,0,1.4,0.2,2,0.5c0.6,0.3,1.1,0.8,1.6,1.4v-5.3l-2.1-0.4v-2.4h2.1h4v18.5l1.9,0.4
		v2.4h-5.4L505.6,140.2z M500.1,135c0,1.3,0.2,2.3,0.6,3.1c0.4,0.7,1.1,1.1,2.1,1.1c0.6,0,1.1-0.1,1.5-0.4c0.4-0.2,0.8-0.6,1.1-1
		v-6.3c-0.3-0.5-0.6-0.8-1-1.1s-0.9-0.4-1.5-0.4c-1,0-1.7,0.4-2.1,1.3c-0.4,0.9-0.7,2-0.7,3.4V135z"/>
	<path class="st2" d="M512.5,139.6l1.9-0.4V130l-2.1-0.4v-2.4h6.1v12l1.9,0.4v2.4h-7.8V139.6z M518.4,123.7h-4v-3h4V123.7z"/>
	<path class="st2" d="M531,142c-0.1-0.2-0.2-0.5-0.3-0.8s-0.1-0.5-0.2-0.8c-0.5,0.5-1.1,1-1.7,1.3c-0.7,0.3-1.5,0.5-2.3,0.5
		c-1.4,0-2.6-0.4-3.5-1.2c-0.9-0.8-1.3-1.9-1.3-3.2c0-1.4,0.6-2.5,1.7-3.2c1.1-0.8,2.7-1.1,4.9-1.1h2v-1.4c0-0.7-0.2-1.3-0.6-1.7
		s-1-0.6-1.8-0.6c-0.5,0-0.9,0.1-1.2,0.2s-0.6,0.2-0.9,0.4l-0.3,1.6h-3l0-3.3c0.7-0.5,1.6-0.9,2.5-1.2s2-0.5,3.1-0.5
		c1.8,0,3.3,0.4,4.5,1.3c1.1,0.9,1.7,2.2,1.7,3.8v6.1c0,0.2,0,0.4,0,0.6c0,0.2,0,0.4,0,0.6l1.2,0.2v2.4H531z M527.6,139.3
		c0.6,0,1.1-0.1,1.6-0.4s0.9-0.6,1.1-1v-2.3h-2c-0.8,0-1.5,0.2-1.9,0.6s-0.7,0.9-0.7,1.4c0,0.5,0.2,0.9,0.5,1.2
		C526.5,139.2,527,139.3,527.6,139.3z"/>
</g>
<g class="st1">
	<path class="st2" d="M656.2,54.8h-3l-0.4-2.7c-0.4-0.4-0.9-0.7-1.5-0.9c-0.6-0.2-1.3-0.3-2.1-0.3c-1.7,0-3.1,0.6-4,1.9
		c-0.9,1.3-1.4,2.9-1.4,4.9v0.7c0,2,0.5,3.7,1.4,4.9s2.2,1.9,3.9,1.9c0.8,0,1.5-0.1,2.2-0.3c0.7-0.2,1.2-0.5,1.5-0.9l0.4-2.7h3v3.9
		c-0.8,0.9-1.8,1.7-3.1,2.2s-2.6,0.8-4.2,0.8c-2.7,0-4.9-0.9-6.6-2.8c-1.7-1.9-2.6-4.2-2.6-7.1v-0.7c0-2.9,0.8-5.3,2.5-7.1
		s3.9-2.8,6.6-2.8c1.5,0,2.9,0.3,4.2,0.8c1.2,0.6,2.3,1.3,3.1,2.2V54.8z"/>
	<path class="st2" d="M668.5,66.1c-0.5,0.7-1.1,1.2-1.8,1.6s-1.5,0.6-2.4,0.6c-1.6,0-2.8-0.5-3.7-1.5c-0.9-1-1.3-2.5-1.3-4.7V56
		l-1.6-0.4v-2.4h1.6h4v9c0,1.1,0.2,1.8,0.5,2.3c0.4,0.5,0.9,0.7,1.6,0.7c0.6,0,1.2-0.1,1.6-0.3c0.5-0.2,0.8-0.5,1.1-0.9v-8l-1.8-0.4
		v-2.4h1.8h4v12l1.8,0.4V68h-5.3L668.5,66.1z"/>
	<path class="st2" d="M675.9,65.6l1.9-0.4V56l-2.1-0.4v-2.4h5.8l0.2,2.2c0.3-0.8,0.8-1.4,1.3-1.8s1.2-0.6,1.9-0.6c0.2,0,0.4,0,0.7,0
		s0.4,0.1,0.6,0.1l-0.4,3.6l-1.6,0c-0.6,0-1.1,0.1-1.4,0.3s-0.7,0.6-0.9,1v7.2l1.9,0.4V68h-7.8V65.6z"/>
	<path class="st2" d="M687.7,65.6l1.9-0.4V56l-2.1-0.4v-2.4h5.8l0.2,2.2c0.3-0.8,0.8-1.4,1.3-1.8s1.2-0.6,1.9-0.6c0.2,0,0.4,0,0.7,0
		s0.4,0.1,0.6,0.1l-0.4,3.6l-1.6,0c-0.6,0-1.1,0.1-1.4,0.3s-0.7,0.6-0.9,1v7.2l1.9,0.4V68h-7.8V65.6z"/>
	<path class="st2" d="M706,68.3c-2.1,0-3.8-0.7-5.1-2.1c-1.3-1.4-1.9-3.1-1.9-5.2v-0.5c0-2.2,0.6-4,1.8-5.4c1.2-1.4,2.8-2.1,4.9-2.1
		c2,0,3.5,0.6,4.6,1.8c1.1,1.2,1.7,2.8,1.7,4.9v2.2h-8.8l0,0.1c0.1,1,0.4,1.8,1,2.4c0.6,0.6,1.4,0.9,2.4,0.9c0.9,0,1.6-0.1,2.2-0.3
		c0.6-0.2,1.2-0.5,1.9-0.8l1.1,2.5c-0.6,0.5-1.4,0.9-2.4,1.2S707.2,68.3,706,68.3z M705.6,56c-0.7,0-1.3,0.3-1.8,0.8
		c-0.4,0.6-0.7,1.3-0.8,2.2l0,0.1h4.9v-0.4c0-0.8-0.2-1.5-0.6-2S706.4,56,705.6,56z"/>
	<path class="st2" d="M713.6,65.6l1.9-0.4V56l-2.1-0.4v-2.4h5.8l0.2,2.1c0.5-0.8,1.1-1.3,1.8-1.8c0.7-0.4,1.5-0.6,2.4-0.6
		c1.5,0,2.7,0.5,3.5,1.4c0.8,0.9,1.3,2.4,1.3,4.4v6.4l1.9,0.4V68h-7.6v-2.4l1.7-0.4v-6.4c0-1-0.2-1.7-0.6-2.1
		c-0.4-0.4-1-0.6-1.8-0.6c-0.5,0-1,0.1-1.4,0.3c-0.4,0.2-0.8,0.5-1.1,0.9v7.9l1.6,0.4V68h-7.5V65.6z"/>
	<path class="st2" d="M737.5,49.6v3.6h2.6V56h-2.6v7.5c0,0.6,0.1,1,0.4,1.2c0.2,0.2,0.6,0.4,1,0.4c0.3,0,0.5,0,0.7,0
		s0.4-0.1,0.7-0.1l0.3,2.9c-0.4,0.1-0.9,0.2-1.3,0.3s-0.9,0.1-1.4,0.1c-1.4,0-2.4-0.4-3.2-1.1c-0.7-0.8-1.1-2-1.1-3.6V56h-2.2v-2.8
		h2.2v-3.6H737.5z"/>
</g>
<g class="st1">
	<path class="st2" d="M652.9,102.8c-0.6,0.6-1.6,1.2-2.8,1.7s-2.8,0.8-4.7,0.8c-2.7,0-4.9-0.9-6.6-2.7s-2.5-4.1-2.5-7v-0.7
		c0-3,0.8-5.4,2.5-7.3s3.8-2.8,6.5-2.8c1.6,0,3,0.2,4.3,0.7s2.4,1.2,3.2,2v4h-3l-0.6-2.7c-0.4-0.3-0.8-0.6-1.4-0.7s-1.3-0.3-2.1-0.3
		c-1.7,0-3.1,0.6-4.1,1.9s-1.4,3-1.4,5v0.7c0,2,0.5,3.6,1.4,4.8s2.3,1.8,4.1,1.8c0.8,0,1.5-0.1,1.9-0.2s0.9-0.3,1.2-0.5v-3.4
		l-2.8-0.2v-2.8h6.8V102.8z"/>
	<path class="st2" d="M665.3,103.1c-0.5,0.7-1.1,1.2-1.8,1.6s-1.5,0.6-2.4,0.6c-1.6,0-2.8-0.5-3.7-1.5s-1.3-2.5-1.3-4.7V93l-1.6-0.4
		v-2.4h1.6h4v9c0,1.1,0.2,1.8,0.5,2.3s0.9,0.7,1.6,0.7c0.6,0,1.2-0.1,1.6-0.3s0.8-0.5,1.1-0.9v-8l-1.8-0.4v-2.4h1.8h4v12l1.8,0.4
		v2.4h-5.3L665.3,103.1z"/>
	<path class="st2" d="M672.3,102.6l1.9-0.4V93l-2.1-0.4v-2.4h6.1v12l1.9,0.4v2.4h-7.8V102.6z M678.2,86.7h-4v-3h4V86.7z"/>
	<path class="st2" d="M691.1,103.2c-0.5,0.7-1,1.2-1.6,1.6s-1.4,0.5-2.2,0.5c-1.8,0-3.2-0.7-4.2-2s-1.5-3.1-1.5-5.3v-0.3
		c0-2.3,0.5-4.2,1.5-5.6s2.4-2.1,4.3-2.1c0.7,0,1.4,0.2,2,0.5s1.1,0.8,1.6,1.4v-5.3l-2.1-0.4v-2.4h2.1h4v18.5l1.9,0.4v2.4h-5.4
		L691.1,103.2z M685.5,98c0,1.3,0.2,2.3,0.6,3.1s1.1,1.1,2.1,1.1c0.6,0,1.1-0.1,1.5-0.4s0.8-0.6,1.1-1v-6.3c-0.3-0.5-0.6-0.8-1-1.1
		s-0.9-0.4-1.5-0.4c-1,0-1.7,0.4-2.1,1.3s-0.7,2-0.7,3.4V98z"/>
	<path class="st2" d="M705.1,105.3c-2.1,0-3.8-0.7-5.1-2.1s-1.9-3.1-1.9-5.2v-0.5c0-2.2,0.6-4,1.8-5.4s2.8-2.1,4.9-2.1
		c2,0,3.5,0.6,4.6,1.8s1.7,2.8,1.7,4.9v2.2h-8.8l0,0.1c0.1,1,0.4,1.8,1,2.4s1.4,0.9,2.4,0.9c0.9,0,1.6-0.1,2.2-0.3s1.2-0.5,1.9-0.8
		l1.1,2.5c-0.6,0.5-1.4,0.9-2.4,1.2S706.3,105.3,705.1,105.3z M704.8,93c-0.7,0-1.3,0.3-1.8,0.8s-0.7,1.3-0.8,2.2l0,0.1h4.9v-0.4
		c0-0.8-0.2-1.5-0.6-2S705.6,93,704.8,93z"/>
	<path class="st2" d="M725.7,86.6v3.6h2.6V93h-2.6v7.5c0,0.6,0.1,1,0.4,1.2s0.6,0.4,1,0.4c0.3,0,0.5,0,0.7,0s0.4-0.1,0.7-0.1
		l0.3,2.9c-0.4,0.1-0.9,0.2-1.3,0.3s-0.9,0.1-1.4,0.1c-1.4,0-2.4-0.4-3.2-1.1s-1.1-2-1.1-3.6V93h-2.2v-2.8h2.2v-3.6H725.7z"/>
	<path class="st2" d="M729.8,97.5c0-2.2,0.6-4,1.9-5.4s2.9-2.1,5.1-2.1c2.2,0,3.9,0.7,5.1,2.1s1.9,3.2,1.9,5.4v0.3
		c0,2.2-0.6,4-1.9,5.4s-2.9,2.1-5.1,2.1c-2.2,0-3.9-0.7-5.1-2.1s-1.9-3.2-1.9-5.4V97.5z M733.8,97.8c0,1.3,0.2,2.4,0.7,3.2
		s1.2,1.2,2.3,1.2c1,0,1.8-0.4,2.3-1.2s0.7-1.9,0.7-3.2v-0.3c0-1.3-0.2-2.4-0.7-3.2s-1.2-1.2-2.3-1.2s-1.8,0.4-2.3,1.2
		s-0.7,1.9-0.7,3.2V97.8z"/>
</g>
<g class="st1">
	<path class="st2" d="M649.9,124.5l-1.6,0.2l-4,17.3h-3.7l-3.7-13.1h-0.1l-3.7,13.1h-3.7l-4.1-17.3l-1.6-0.2v-2.4h7.3v2.4l-1.8,0.3
		l2.3,10.9l0.1,0l3.7-13.6h2.9l3.8,13.6l0.1,0l2.3-10.9l-1.8-0.3v-2.4h7.3V124.5z"/>
	<path class="st2" d="M651,139.6l1.9-0.4v-15.7l-2.1-0.4v-2.4h6.1v8.4c0.5-0.7,1-1.2,1.7-1.6c0.7-0.4,1.4-0.6,2.2-0.6
		c1.5,0,2.8,0.5,3.6,1.5s1.3,2.6,1.3,4.8v6l1.9,0.4v2.4h-7.6v-2.4l1.7-0.4v-6c0-1.1-0.2-2-0.6-2.4s-1-0.7-1.8-0.7
		c-0.6,0-1,0.1-1.5,0.3s-0.8,0.5-1,0.8v8l1.7,0.4v2.4H651V139.6z"/>
	<path class="st2" d="M678.4,142c-0.1-0.2-0.2-0.5-0.3-0.8s-0.1-0.5-0.2-0.8c-0.5,0.5-1.1,1-1.7,1.3s-1.5,0.5-2.3,0.5
		c-1.4,0-2.6-0.4-3.5-1.2s-1.3-1.9-1.3-3.2c0-1.4,0.6-2.5,1.7-3.2c1.1-0.8,2.7-1.1,4.9-1.1h2v-1.4c0-0.7-0.2-1.3-0.6-1.7
		s-1-0.6-1.8-0.6c-0.5,0-0.9,0.1-1.2,0.2s-0.6,0.2-0.9,0.4L673,132h-3l0-3.3c0.7-0.5,1.6-0.9,2.5-1.2s2-0.5,3.1-0.5
		c1.8,0,3.3,0.4,4.5,1.3s1.7,2.2,1.7,3.8v6.1c0,0.2,0,0.4,0,0.6s0,0.4,0,0.6l1.2,0.2v2.4H678.4z M675,139.3c0.6,0,1.1-0.1,1.6-0.4
		s0.9-0.6,1.1-1v-2.3h-2c-0.8,0-1.5,0.2-1.9,0.6s-0.7,0.9-0.7,1.4c0,0.5,0.2,0.9,0.5,1.2S674.4,139.3,675,139.3z"/>
	<path class="st2" d="M689.2,123.6v3.6h2.6v2.8h-2.6v7.5c0,0.6,0.1,1,0.4,1.2c0.2,0.2,0.6,0.4,1,0.4c0.3,0,0.5,0,0.7,0
		s0.4-0.1,0.7-0.1l0.3,2.9c-0.4,0.1-0.9,0.2-1.3,0.3s-0.9,0.1-1.4,0.1c-1.4,0-2.4-0.4-3.2-1.1s-1.1-2-1.1-3.6V130H683v-2.8h2.2v-3.6
		H689.2z"/>
	<path class="st2" d="M698.1,123.3c0,0.9-0.2,1.9-0.7,2.9c-0.5,1-1.1,1.8-1.8,2.5l-2-1.1c0.4-0.6,0.6-1.3,0.8-2s0.3-1.4,0.3-2.3
		v-2.6h3.3V123.3z"/>
	<path class="st2" d="M711,132.3h-2.7l-0.4-1.8c-0.3-0.2-0.6-0.4-1-0.5s-0.9-0.2-1.4-0.2c-0.7,0-1.3,0.2-1.7,0.5s-0.6,0.7-0.6,1.2
		c0,0.4,0.2,0.8,0.6,1.1c0.4,0.3,1.2,0.6,2.4,0.8c1.8,0.4,3.2,0.9,4.1,1.6c0.9,0.7,1.3,1.7,1.3,2.9c0,1.3-0.6,2.4-1.7,3.3
		s-2.7,1.3-4.5,1.3c-1.1,0-2.2-0.2-3.1-0.5s-1.8-0.8-2.5-1.4l0-3.3h2.8l0.5,1.9c0.2,0.2,0.6,0.3,1,0.4s0.8,0.1,1.3,0.1
		c0.8,0,1.4-0.1,1.9-0.4s0.6-0.7,0.6-1.2c0-0.4-0.2-0.8-0.6-1.1c-0.4-0.3-1.2-0.6-2.4-0.8c-1.7-0.4-3.1-0.9-3.9-1.6
		s-1.3-1.6-1.3-2.9c0-1.2,0.5-2.3,1.5-3.2c1-0.9,2.5-1.3,4.4-1.3c1.1,0,2.2,0.2,3.3,0.5s1.8,0.7,2.4,1.2L711,132.3z"/>
	<path class="st2" d="M738.3,132.2c0,2.9-0.8,5.3-2.5,7.2s-3.9,2.9-6.5,2.9c-2.7,0-4.9-1-6.5-2.9s-2.5-4.3-2.5-7.2v-0.3
		c0-2.9,0.8-5.3,2.5-7.2c1.6-1.9,3.8-2.9,6.5-2.9c2.7,0,4.9,1,6.6,2.9s2.5,4.3,2.5,7.2V132.2z M734.3,131.9c0-2.1-0.4-3.7-1.3-5
		c-0.9-1.3-2.1-1.9-3.8-1.9c-1.7,0-2.9,0.6-3.8,1.9s-1.2,3-1.2,5v0.3c0,2.1,0.4,3.8,1.3,5.1s2.1,1.9,3.8,1.9c1.7,0,3-0.6,3.8-1.9
		s1.3-3,1.3-5.1V131.9z"/>
	<path class="st2" d="M739.8,139.6l1.9-0.4V130l-2.1-0.4v-2.4h5.8l0.2,2.1c0.5-0.8,1.1-1.3,1.8-1.8c0.7-0.4,1.5-0.6,2.4-0.6
		c1.5,0,2.7,0.5,3.5,1.4c0.8,0.9,1.3,2.4,1.3,4.4v6.4l1.9,0.4v2.4h-7.6v-2.4l1.7-0.4v-6.4c0-1-0.2-1.7-0.6-2.1
		c-0.4-0.4-1-0.6-1.8-0.6c-0.5,0-1,0.1-1.4,0.3c-0.4,0.2-0.8,0.5-1.1,0.9v7.9l1.6,0.4v2.4h-7.5V139.6z"/>
</g>
</svg>
