<?xml version="1.0" encoding="utf-8"?>
<!-- Generator: Adobe Illustrator 25.2.0, SVG Export Plug-In . SVG Version: 6.00 Build 0)  -->
<svg version="1.1" id="Layer_1" xmlns="http://www.w3.org/2000/svg" xmlns:xlink="http://www.w3.org/1999/xlink" x="0px" y="0px"
	 viewBox="0 0 25 18.5" style="enable-background:new 0 0 25 18.5;" xml:space="preserve">
<style type="text/css">
	.st0{fill:#F0F0F0;}
</style>
<path class="st0" d="M23.1,3H1.5C0.7,3,0,2.3,0,1.5S0.7,0,1.5,0h21.6c0.8,0,1.5,0.7,1.5,1.5S24,3,23.1,3z"/>
<path class="st0" d="M23.1,10.8H1.5C0.7,10.8,0,10.1,0,9.2c0-0.8,0.7-1.5,1.5-1.5h21.6c0.8,0,1.5,0.7,1.5,1.5
	C24.6,10.1,24,10.8,23.1,10.8z"/>
<path class="st0" d="M23.1,18.5H1.5C0.7,18.5,0,17.8,0,17s0.7-1.5,1.5-1.5h21.6c0.8,0,1.5,0.7,1.5,1.5S24,18.5,23.1,18.5z"/>
</svg>
