<svg xmlns="http://www.w3.org/2000/svg" width="43.277" height="43.309" viewBox="0 0 43.277 43.309">
  <g id="FB_logo" data-name="FB logo" transform="translate(-172.803 -1357.208)">
    <circle id="Ellipse_1" data-name="Ellipse 1" cx="21.639" cy="21.639" r="21.639" transform="translate(172.803 1357.208)" fill="#fff"/>
    <path id="Path_1" data-name="Path 1" d="M199.682,1399.873l.056-16.546H204.4l.64-5.748h-5.278c-.07-4.788.126-5.6,1.759-6.067,1.981.068,4,0,4,0V1366.4c-5.351-1.745-12.083-.7-11.676,11.176H189.2v5.748h4.48l-.021,17.053,2.6.06c-.6.05-1.209.077-1.823.077a21.555,21.555,0,1,1,5.241-.644Z" fill="#a1acd6" fill-rule="evenodd"/>
    <path id="Path_2" data-name="Path 2" d="M209.741,1363.549a21.635,21.635,0,1,1-30.6,30.6" fill-rule="evenodd" opacity="0.1" style="isolation: isolate"/>
  </g>
</svg>
