<?xml version="1.0" encoding="utf-8"?>
<!-- Generator: Adobe Illustrator 25.2.0, SVG Export Plug-In . SVG Version: 6.00 Build 0)  -->
<svg version="1.1" id="Layer_1" xmlns="http://www.w3.org/2000/svg" xmlns:xlink="http://www.w3.org/1999/xlink" x="0px" y="0px"
	 viewBox="0 0 789 188" style="enable-background:new 0 0 789 188;" xml:space="preserve">
<style type="text/css">
	.st0{fill:#5E647B;}
	.st1{fill:#F0F0F0;}
	.st2{font-family:'RobotoSlab-Bold';}
	.st3{font-size:28px;}
</style>
<circle id="Ellipse_13" class="st0" cx="94" cy="94" r="94"/>
<circle id="Ellipse_14" class="st0" cx="294" cy="94" r="94"/>
<circle id="Ellipse_15" class="st0" cx="495" cy="94" r="94"/>
<circle id="Ellipse_16" class="st0" cx="695" cy="94" r="94"/>
<text transform="matrix(1 0 0 1 35.929 68)" class="st1 st2 st3">Enhance </text>
<text transform="matrix(1 0 0 1 40.44 105)" class="st1 st2 st3">the HiFi </text>
<text transform="matrix(1 0 0 1 29.031 142)" class="st1 st2 st3">Prototype</text>
<text transform="matrix(1 0 0 1 245.659 76)" class="st1 st2 st3">In-App </text>
<text transform="matrix(1 0 0 1 223.025 113)" class="st1 st2 st3">Streaming</text>
<text transform="matrix(1 0 0 1 429.0312 59)" class="st1 st2 st3">Algorithm </text>
<text transform="matrix(1 0 0 1 430.2483 96)" class="st1 st2 st3">Catered to </text>
<text transform="matrix(1 0 0 1 455.9783 133)" class="st1 st2 st3">User’s </text>
<text transform="matrix(1 0 0 1 460.5243 170)" class="st1 st2 st3">Taste</text>
<text transform="matrix(1 0 0 1 647.6224 68)" class="st1 st2 st3">Virtual </text>
<text transform="matrix(1 0 0 1 639.7814 105)" class="st1 st2 st3">Viewing </text>
<text transform="matrix(1 0 0 1 647.2123 142)" class="st1 st2 st3">Parties</text>
</svg>
