<svg xmlns="http://www.w3.org/2000/svg" width="43.277" height="43.278" viewBox="0 0 43.277 43.278">
  <g id="GM_logo" data-name="GM logo" transform="translate(-368.32 -1357.224)">
    <path id="Path_16" data-name="Path 16" d="M411.185,1383.072a21.639,21.639,0,1,0-36.458,11.158l30.5-30.5A21.611,21.611,0,0,1,411.185,1383.072Z" fill="#a1acd6"/>
    <path id="Path_17" data-name="Path 17" d="M411.123,1383.372c.013-.064.03-.128.042-.193.008-.035.013-.072.02-.107a21.611,21.611,0,0,0-5.956-19.345l-30.5,30.5a21.637,21.637,0,0,0,36.4-10.858Z" fill="#a1acd6"/>
    <path id="Path_18" data-name="Path 18" d="M404.308,1370.844c-.07,1.4,0,16.727,0,16.727s-.338,1.636-1.79,1.636c-4.911,0-22.167.218-24.243.182a1.853,1.853,0,0,1-1.946-1.818v-16.545c-.05-1.877,2.362-2,2.362-2l23.8-.181S404.379,1369.443,404.308,1370.844Zm-.694.65s-.406-1.966-2.071-1.864c-1.763,1.159-11.219,8.134-11.219,8.134l-11.218-7.964s-2.126-.094-2.071,1.694c-.029,1.581,0,15.929,0,15.929s.479,1.244,2.761,1.187l.173-13.9,10.355,6.948,10.183-6.779.173,13.727c2.494,0,2.934-1.187,2.934-1.187Z" fill="#fff" fill-rule="evenodd"/>
    <path id="Path_19" data-name="Path 19" d="M411.123,1383.372c.013-.064.03-.128.042-.193.008-.035.013-.072.02-.107a21.611,21.611,0,0,0-5.956-19.345l-30.5,30.5a21.637,21.637,0,0,0,36.4-10.858Z" opacity="0.1" style="isolation: isolate"/>
  </g>
</svg>
