<svg xmlns="http://www.w3.org/2000/svg" width="43.277" height="43.278" viewBox="0 0 43.277 43.278">
  <g id="IG_logo" data-name="IG logo" transform="translate(-42.459 -1357.224)">
    <path id="Path_7" data-name="Path 7" d="M85.324,1383.072a21.639,21.639,0,1,0-36.458,11.158l30.5-30.5A21.611,21.611,0,0,1,85.324,1383.072Z" fill="#a1acd6"/>
    <path id="Path_8" data-name="Path 8" d="M85.262,1383.372c.014-.064.03-.128.043-.193.007-.035.012-.072.019-.107a21.611,21.611,0,0,0-5.956-19.345l-30.5,30.5a21.637,21.637,0,0,0,36.4-10.858Z" fill="#a1acd6"/>
    <g id="Group_4" data-name="Group 4">
      <path id="Path_9" data-name="Path 9" d="M64.1,1367.3c3.764,0,4.211.012,5.7.082a7.743,7.743,0,0,1,2.621.488,4.661,4.661,0,0,1,2.673,2.674,7.821,7.821,0,0,1,.488,2.62c.066,1.488.083,1.934.083,5.7s-.013,4.211-.083,5.7a7.719,7.719,0,0,1-.488,2.62,4.661,4.661,0,0,1-2.673,2.674,7.855,7.855,0,0,1-2.621.487c-1.487.066-1.934.083-5.7.083s-4.212-.012-5.7-.083a7.751,7.751,0,0,1-2.621-.487,4.661,4.661,0,0,1-2.673-2.674,7.822,7.822,0,0,1-.488-2.62c-.066-1.488-.083-1.934-.083-5.7s.013-4.211.083-5.7a7.718,7.718,0,0,1,.488-2.62,4.661,4.661,0,0,1,2.673-2.674,7.847,7.847,0,0,1,2.621-.488c1.487-.07,1.934-.082,5.7-.082m0-2.542c-3.831,0-4.311.017-5.815.087a10.37,10.37,0,0,0-3.426.657,6.8,6.8,0,0,0-2.5,1.624,6.948,6.948,0,0,0-1.629,2.5,10.456,10.456,0,0,0-.657,3.426c-.07,1.505-.086,1.984-.086,5.815s.016,4.31.086,5.815a10.4,10.4,0,0,0,.657,3.426,7.239,7.239,0,0,0,4.129,4.12,10.43,10.43,0,0,0,3.426.657c1.5.07,1.984.087,5.815.087s4.31-.017,5.814-.087a10.37,10.37,0,0,0,3.426-.657,7.237,7.237,0,0,0,4.121-4.129,10.445,10.445,0,0,0,.657-3.426c.07-1.5.086-1.983.086-5.814s-.016-4.311-.086-5.815a10.4,10.4,0,0,0-.657-3.426,7.24,7.24,0,0,0-4.129-4.12,10.434,10.434,0,0,0-3.426-.657c-1.5-.066-1.979-.083-5.81-.083Z" fill="#fff"/>
      <path id="Path_10" data-name="Path 10" d="M64.1,1371.616a7.245,7.245,0,1,0,7.244,7.245A7.245,7.245,0,0,0,64.1,1371.616Zm0,11.948a4.7,4.7,0,1,1,4.7-4.7A4.7,4.7,0,0,1,64.1,1383.564Z" fill="#fff"/>
      <circle id="Ellipse_4" data-name="Ellipse 4" cx="1.694" cy="1.694" r="1.694" transform="translate(69.933 1369.637)" fill="#fff"/>
    </g>
    <path id="Path_11" data-name="Path 11" d="M85.262,1383.372c.014-.064.03-.128.043-.193.007-.035.012-.072.019-.107a21.611,21.611,0,0,0-5.956-19.345l-30.5,30.5a21.637,21.637,0,0,0,36.4-10.858Z" opacity="0.1" style="isolation: isolate"/>
    <path id="Path_12" data-name="Path 12" d="M85.305,1383.179c-.013.065-.029.129-.043.193C85.276,1383.308,85.292,1383.244,85.305,1383.179Z" fill="#01a2a6"/>
    <path id="Path_13" data-name="Path 13" d="M85.324,1383.072c-.007.035-.012.072-.019.107C85.312,1383.143,85.317,1383.108,85.324,1383.072Z" opacity="0.1" style="isolation: isolate"/>
  </g>
</svg>
