<svg xmlns="http://www.w3.org/2000/svg" width="286" height="53" viewBox="0 0 286 53">
  <g id="KBD_Logo" data-name="KBD Logo" transform="translate(-278 -26)">
    <text id="Kevin_Beyers_Design" data-name="Kevin Beyers 
Design" transform="translate(382 26)" fill="#f0f0f0" font-size="24" font-family="Montserrat-Thin, Montserrat" font-weight="200"><tspan x="0" y="23">KEVIN BEYERS </tspan><tspan font-family="Montserrat-Medium, Montserrat" font-weight="500"><tspan x="0" y="47">DESIGN</tspan></tspan></text>
    <g id="Group_34" data-name="Group 34" transform="translate(278 26)">
      <path id="Path_40" data-name="Path 40" d="M322.137,367.985a23.415,23.415,0,0,0-9.723-8.771,31.2,31.2,0,0,0-14-3.045H226.607v49.785h71.806a31.118,31.118,0,0,0,14-3.045,23.331,23.331,0,0,0,9.723-8.771,26.373,26.373,0,0,0,0-26.155Zm-1.09,25.5a22.094,22.094,0,0,1-9.209,8.3,29.886,29.886,0,0,1-13.444,2.913H227.841V357.423h70.553a29.97,29.97,0,0,1,13.444,2.913,22.149,22.149,0,0,1,9.209,8.307,25.106,25.106,0,0,1,0,24.846Z" transform="translate(-226.607 -356.17)" fill="none"/>
      <path id="Path_41" data-name="Path 41" d="M321.783,369.39a22.149,22.149,0,0,0-9.209-8.307,29.97,29.97,0,0,0-13.444-2.913H228.577v47.279H299.13a29.887,29.887,0,0,0,13.444-2.913,22.093,22.093,0,0,0,9.209-8.3,25.106,25.106,0,0,0,0-24.846Zm-10.963,32.582-.357.15-.219.094h-.013a.3.3,0,0,1-.044.019.705.705,0,0,0-.081.031c-.006.006-.019.006-.025.013a.337.337,0,0,0-.069.031h-.006l-.113.038c-.088.031-.175.069-.263.1-.107.038-.213.081-.319.119q-.536.188-1.09.357c-.232.075-.464.138-.7.207-.031.006-.063.019-.094.025a27.577,27.577,0,0,1-3.045.652,34.539,34.539,0,0,1-5.25.388h-69.3V359.423h69.3a34.543,34.543,0,0,1,5.25.388c.652.1,1.284.226,1.911.37.182.044.37.088.558.138a.185.185,0,0,1,.063.013c.207.05.407.1.608.157.238.069.47.132.7.207q.554.169,1.09.357c.107.038.213.081.319.119.088.031.175.069.263.1l.113.038v.006l.006-.006a.336.336,0,0,0,.069.031c.006.006.019.006.025.013a.706.706,0,0,0,.081.031.305.305,0,0,1,.044.019h.013l.219.094.357.15a.606.606,0,0,1,.069.031c.006.006.019.006.025.013.075.031.15.063.219.094.3.138.6.276.883.42a20.808,20.808,0,0,1,8.7,7.837,23.88,23.88,0,0,1,0,23.536,20.809,20.809,0,0,1-8.7,7.837c-.288.144-.583.282-.883.42-.069.031-.144.063-.219.094-.006.006-.019.006-.025.013A.611.611,0,0,1,310.819,401.973Z" transform="translate(-227.343 -356.917)" fill="#fff"/>
      <path id="Path_42" data-name="Path 42" d="M267.369,421.194H246.827a.134.134,0,0,0,.138-.132V409.93a.128.128,0,0,1,.038-.094l5.864-6.121a.142.142,0,0,1,.207.006l14.189,17.422A.134.134,0,0,0,267.369,421.194Z" transform="translate(-234.16 -373.914)" fill="none"/>
      <path id="Path_43" data-name="Path 43" d="M266.849,360.17a.148.148,0,0,0-.1.044L247.2,380.843a.135.135,0,0,1-.232-.094V360.308a.139.139,0,0,0-.138-.138Z" transform="translate(-234.16 -357.664)" fill="none"/>
      <path id="Path_44" data-name="Path 44" d="M275.653,378.01v19.1l-8.094-10.23a.134.134,0,0,1,.006-.175Z" transform="translate(-241.893 -364.328)" fill="none"/>
      <path id="Path_45" data-name="Path 45" d="M357.952,382.56a22.031,22.031,0,0,1-3.1,11.765,20.809,20.809,0,0,1-8.7,7.837,26.163,26.163,0,0,1-7.637,2.393,34.539,34.539,0,0,1-5.25.388H321.811q6.277-.507,9.917-3.045a10.434,10.434,0,0,0,4.573-9.1,11.318,11.318,0,0,0-2.174-7.041,11.856,11.856,0,0,0-6.014-4.085,10.831,10.831,0,0,0,5.945-9.9,9.985,9.985,0,0,0-4.379-8.551q-3.58-2.584-9.723-3.045h13.306a34.543,34.543,0,0,1,5.25.388,26.163,26.163,0,0,1,7.637,2.393,20.808,20.808,0,0,1,8.7,7.837A22.053,22.053,0,0,1,357.952,382.56Z" transform="translate(-261.476 -357.664)" fill="none"/>
      <g id="Group_33" data-name="Group 33" transform="translate(33.76 2.399)">
        <path id="Path_46" data-name="Path 46" d="M319.388,385.691a11.856,11.856,0,0,0-6.014-4.085,10.831,10.831,0,0,0,5.945-9.9,9.985,9.985,0,0,0-4.379-8.551q-3.58-2.584-9.723-3.045c-.908-.069-1.854-.107-2.844-.107H280.5v45.018h23.154c1.2,0,2.337-.044,3.421-.138q6.277-.507,9.917-3.045a10.434,10.434,0,0,0,4.573-9.1A11.318,11.318,0,0,0,319.388,385.691Zm-12.473-16.526a4.422,4.422,0,0,1,1.98,3.953,4.5,4.5,0,0,1-1.98,3.984,10.338,10.338,0,0,1-5.82,1.353H290.8V367.843h10.3A10.515,10.515,0,0,1,306.915,369.165Zm2.143,26.656a11.413,11.413,0,0,1-6.171,1.353H290.8V386.042h12.091q8.251,0,8.251,5.6A4.636,4.636,0,0,1,309.058,395.821Z" transform="translate(-280.497 -360)" fill="#fff"/>
        <path id="Path_47" data-name="Path 47" d="M317.278,407.171a4.636,4.636,0,0,1-2.08,4.178,11.413,11.413,0,0,1-6.171,1.353H296.937V401.57h12.091Q317.278,401.57,317.278,407.171Z" transform="translate(-286.638 -375.528)" fill="none"/>
        <path id="Path_48" data-name="Path 48" d="M315.036,377.795a4.5,4.5,0,0,1-1.98,3.984,10.338,10.338,0,0,1-5.82,1.353h-10.3V372.52h10.3a10.515,10.515,0,0,1,5.82,1.322A4.422,4.422,0,0,1,315.036,377.795Z" transform="translate(-286.638 -364.677)" fill="none"/>
      </g>
      <path id="Path_49" data-name="Path 49" d="M273.157,404.724l-11.3-14.277-8.094-10.23a.134.134,0,0,1,.006-.175l8.088-8.7L272.035,360.4a.138.138,0,0,0-.1-.232H260.79a.148.148,0,0,0-.1.044l-19.552,20.63a.135.135,0,0,1-.232-.094V360.308a.139.139,0,0,0-.138-.138h-10.03a.138.138,0,0,0-.132.138v44.5a.132.132,0,0,0,.132.132h10.03a.134.134,0,0,0,.138-.132V393.68a.127.127,0,0,1,.038-.094l5.864-6.121a.142.142,0,0,1,.207.006L261.2,404.893a.134.134,0,0,0,.107.05h11.74A.136.136,0,0,0,273.157,404.724Z" transform="translate(-228.101 -357.664)" fill="#fff"/>
    </g>
  </g>
</svg>
