<svg xmlns="http://www.w3.org/2000/svg" width="43.278" height="43.278" viewBox="0 0 43.278 43.278">
  <g id="LI_logo" data-name="LI logo" transform="translate(-237.975 -1357.224)">
    <circle id="Ellipse_2" data-name="Ellipse 2" cx="21.639" cy="21.639" r="21.639" transform="translate(237.975 1357.224)" fill="#fff"/>
    <path id="Path_3" data-name="Path 3" d="M259.614,1400.5a21.639,21.639,0,1,1,21.639-21.639A21.639,21.639,0,0,1,259.614,1400.5Zm-10.228-10.228h5.072v-15.891h-5.072Zm2.548-22.738a2.639,2.639,0,1,0,2.633,2.639A2.636,2.636,0,0,0,251.934,1367.536Zm20.851,10.668c-.033-.536-1.562-4.193-5.06-4.2a7.88,7.88,0,0,0-5.406,2.1v-1.553H257.67L257.6,1390.1h5.07s.024-9.5,0-9.8a2.41,2.41,0,0,1,2.618-1.75,2.626,2.626,0,0,1,2.615,1.575v10.146h4.887S272.818,1378.739,272.785,1378.2Z" fill="#939dc3" fill-rule="evenodd"/>
    <path id="Path_4" data-name="Path 4" d="M274.913,1363.565a21.635,21.635,0,0,1-30.6,30.6" fill-rule="evenodd" opacity="0.1" style="isolation: isolate"/>
  </g>
</svg>
