<?xml version="1.0" encoding="utf-8"?>
<!-- Generator: Adobe Illustrator 25.2.0, SVG Export Plug-In . SVG Version: 6.00 Build 0)  -->
<svg version="1.1" id="Layer_1" xmlns="http://www.w3.org/2000/svg" xmlns:xlink="http://www.w3.org/1999/xlink" x="0px" y="0px"
	 viewBox="0 0 1157 167" style="enable-background:new 0 0 1157 167;" xml:space="preserve">
<style type="text/css">
	.st0{fill:#5E647B;}
	.st1{fill:none;stroke:#5E647B;stroke-width:10;}
	.st2{fill:#3D414F;}
	.st3{font-family:'RobotoSlab-Bold';}
	.st4{font-size:24px;}
	.st5{fill:#F0F0F0;}
	.st6{font-size:80px;}
</style>
<circle id="Ellipse_6" class="st0" cx="49.5" cy="56.5" r="49.5"/>
<circle id="Ellipse_7" class="st0" cx="256.5" cy="56.5" r="49.5"/>
<circle id="Ellipse_8" class="st0" cx="463.5" cy="56.5" r="49.5"/>
<circle id="Ellipse_9" class="st0" cx="670.5" cy="56.5" r="49.5"/>
<circle id="Ellipse_10" class="st0" cx="877.5" cy="56.5" r="49.5"/>
<circle id="Ellipse_11" class="st0" cx="1084.5" cy="56.5" r="49.5"/>
<line id="Line_1" class="st1" x1="66.5" y1="57" x2="1084.5" y2="57"/>
<text transform="matrix(1 0 0 1 14 134)" class="st2 st3 st4">Goals</text>
<text transform="matrix(1 0 0 1 207 134)" class="st2 st3 st4">Research</text>
<text transform="matrix(1 0 0 1 621 134)" class="st2 st3 st4">Prototyping </text>
<text transform="matrix(1 0 0 1 621 160)" class="st2 st3 st4">&amp; Testing</text>
<text transform="matrix(1 0 0 1 820 134)" class="st2 st3 st4">Conclusion</text>
<text transform="matrix(1 0 0 1 1047.932 134)" class="st2 st3 st4">Future</text>
<text transform="matrix(1 0 0 1 1054.752 160)" class="st2 st3 st4">Goals</text>
<text transform="matrix(1 0 0 1 408 134)" class="st2 st3 st4">Definition </text>
<text transform="matrix(1 0 0 1 408 160)" class="st2 st3 st4">&amp; Ideation</text>
<text transform="matrix(1 0 0 1 32 84)" class="st5 st3 st6">1</text>
<text transform="matrix(1 0 0 1 236 84)" class="st5 st3 st6">2</text>
<text transform="matrix(1 0 0 1 444 84)" class="st5 st3 st6">3</text>
<text transform="matrix(1 0 0 1 647 84)" class="st5 st3 st6">4</text>
<text transform="matrix(1 0 0 1 856 84)" class="st5 st3 st6">5</text>
<text transform="matrix(1 0 0 1 1062 84)" class="st5 st3 st6">6</text>
</svg>
