<?xml version="1.0" encoding="utf-8"?>
<!-- Generator: Adobe Illustrator 25.2.0, SVG Export Plug-In . SVG Version: 6.00 Build 0)  -->
<svg version="1.1" id="Layer_1" xmlns="http://www.w3.org/2000/svg" xmlns:xlink="http://www.w3.org/1999/xlink" x="0px" y="0px"
	 viewBox="0 0 84 78" style="enable-background:new 0 0 84 78;" xml:space="preserve">
<style type="text/css">
	.st0{enable-background:new    ;}
	.st1{fill:#5E647B;}
</style>
<g class="st0">
	<path class="st1" d="M41.2,32.4c0,6.4-1.7,13.2-5.1,20.4c-3.4,7.2-7.7,13.1-12.7,17.7L9.3,62.9c2.6-4.6,4.6-9.3,5.9-14.1
		c1.3-4.9,2-10.3,2-16.4V13.5h24V32.4z M74.1,32.4c0,6.4-1.7,13.2-5.1,20.4c-3.4,7.2-7.7,13.1-12.7,17.7l-14.1-7.6
		c2.6-4.6,4.6-9.3,5.9-14.1c1.3-4.9,2-10.3,2-16.4V13.5h24V32.4z"/>
</g>
</svg>
