<?xml version="1.0" encoding="utf-8"?>
<!-- Generator: Adobe Illustrator 25.2.0, SVG Export Plug-In . SVG Version: 6.00 Build 0)  -->
<svg version="1.1" id="Layer_1" xmlns="http://www.w3.org/2000/svg" xmlns:xlink="http://www.w3.org/1999/xlink" x="0px" y="0px"
	 viewBox="0 0 82 81" style="enable-background:new 0 0 82 81;" xml:space="preserve">
<style type="text/css">
	.st0{enable-background:new    ;}
	.st1{fill:#5E647B;}
</style>
<g class="st0">
	<path class="st1" d="M9.9,48.6c0-6.4,1.7-13.2,5.1-20.4c3.4-7.2,7.7-13.1,12.7-17.7l14.1,7.6c-2.6,4.6-4.6,9.3-5.9,14.1
		c-1.3,4.9-2,10.3-2,16.4v18.8h-24C9.9,67.4,9.9,48.6,9.9,48.6z M42.8,48.6c0-6.4,1.7-13.2,5.1-20.4c3.4-7.2,7.7-13.1,12.7-17.7
		l14.1,7.6c-2.6,4.6-4.6,9.3-5.9,14.1c-1.3,4.9-2,10.3-2,16.4v18.8h-24C42.8,67.4,42.8,48.6,42.8,48.6z"/>
</g>
</svg>
