<?xml version="1.0" encoding="utf-8"?>
<!-- Generator: Adobe Illustrator 25.2.0, SVG Export Plug-In . SVG Version: 6.00 Build 0)  -->
<svg version="1.1" xmlns="http://www.w3.org/2000/svg" xmlns:xlink="http://www.w3.org/1999/xlink" x="0px" y="0px"
	 viewBox="0 0 115 115" style="enable-background:new 0 0 115 115;" xml:space="preserve">
<style type="text/css">
	.st0{fill:#3D414F;}
	.st1{fill:none;stroke:#F0F0F0;stroke-width:8;}
	.st2{fill:#F0F0F0;}
</style>
<g id="Layer_1">
	<g id="Rectangle_29" transform="translate(278 1286)">
		<path class="st0" d="M-220.5-1278L-220.5-1278c27.3,0,49.5,22.2,49.5,49.5l0,0c0,27.3-22.2,49.5-49.5,49.5l0,0
			c-27.3,0-49.5-22.2-49.5-49.5l0,0C-270-1255.8-247.8-1278-220.5-1278z"/>
		<path class="st1" d="M-220.5-1282L-220.5-1282c29.5,0,53.5,24,53.5,53.5l0,0c0,29.5-24,53.5-53.5,53.5l0,0
			c-29.5,0-53.5-24-53.5-53.5l0,0C-274-1258-250-1282-220.5-1282z"/>
	</g>
</g>
<g id="Layer_2">
	<path id="Path_25" class="st2" d="M80.2,65.2L77,63.3c1.3-4,1.3-8.3,0-12.3l3.2-1.9c2.2-1.4,2.9-4.3,1.6-6.6
		c-1.4-2.2-4.2-2.9-6.5-1.6l-3.2,1.9c-2.6-2.6-5.9-4.5-9.6-5.4v-4.1c0-2.6-2.1-4.8-4.8-4.8S53,30.7,53,33.3c0,0,0,0,0,0v4.1
		c-3.7,0.9-7.1,2.8-9.7,5.6l-3.5-2.1c-2.2-1.4-5.2-0.7-6.6,1.6c-1.4,2.2-0.7,5.2,1.6,6.6c0,0,0.1,0,0.1,0.1l3.6,2.1
		c-1.2,3.9-1.2,8,0,11.8l-3.6,2.1c-2.3,1.4-3,4.3-1.6,6.5c1.4,2.3,4.3,3,6.5,1.6l3.5-2.1c2.7,2.7,6,4.7,9.7,5.6V81
		c0,2.6,2.1,4.8,4.8,4.8c2.6,0,4.7-2.1,4.8-4.8v-4.1c3.6-0.9,6.9-2.7,9.6-5.4l3.2,1.9c2.3,1.4,5.2,0.6,6.5-1.6
		C83.2,69.5,82.5,66.6,80.2,65.2L80.2,65.2z M57.8,67.9c-5.9,0-10.7-4.8-10.7-10.7c0-5.9,4.8-10.7,10.7-10.7
		c5.9,0,10.7,4.8,10.7,10.7c0,0,0,0,0,0C68.5,63.1,63.7,67.8,57.8,67.9L57.8,67.9z"/>
</g>
</svg>
