<svg xmlns="http://www.w3.org/2000/svg" width="43.278" height="43.278" viewBox="0 0 43.278 43.278">
  <g id="TW_logo" data-name="TW logo" transform="translate(-303.147 -1357.224)">
    <circle id="Ellipse_3" data-name="Ellipse 3" cx="21.639" cy="21.639" r="21.639" transform="translate(303.147 1357.224)" fill="#fff"/>
    <path id="Path_5" data-name="Path 5" d="M324.786,1400.5a21.639,21.639,0,1,1,21.639-21.639A21.639,21.639,0,0,1,324.786,1400.5Zm15.092-32.056a11.368,11.368,0,0,1-4.288,1.638c-.817-2.359-11.218-4.786-11.218,5.815-2.541.7-9.886-2.248-13.181-6.736-.211.525-3.261,5.078,1.917,8.815-.554-.008-1.226-.39-2.734-.729a6.644,6.644,0,0,0,5.063,6.477,11.326,11.326,0,0,1-2.817.074,6.8,6.8,0,0,0,5.864,4.6s-2.2,2.613-9.335,2.568c10.9,6.852,27.818,1.394,28.585-16.4a10.164,10.164,0,0,0,2.859-3.355l-3.4,1.019S339.482,1370.33,339.878,1368.446Z" fill="#a1acd6" fill-rule="evenodd"/>
    <path id="Path_6" data-name="Path 6" d="M340.085,1363.565a21.635,21.635,0,0,1-30.6,30.6" fill-rule="evenodd" opacity="0.1" style="isolation: isolate"/>
  </g>
</svg>
