<svg xmlns="http://www.w3.org/2000/svg" width="43.024" height="43.024" viewBox="0 0 43.024 43.024">
  <g id="YT_logo" data-name="YT logo" transform="translate(-107.758 -1357.351)">
    <circle id="Ellipse_5" data-name="Ellipse 5" cx="21.512" cy="21.512" r="21.512" transform="translate(107.758 1357.351)" fill="#fff"/>
    <path id="Path_20" data-name="Path 20" d="M129.27,1400.375a21.512,21.512,0,1,1,21.512-21.512A21.512,21.512,0,0,1,129.27,1400.375Zm9.764-29.791c-1.648-.644-16-.557-18.426-.069s-3.187,1.587-3.187,8.3,1.1,7.67,2.84,8.162,15.483.471,18.288.069c3.073-.44,3.325-2.961,3.325-8.992S140.855,1371.3,139.034,1370.584Zm-11.915,4.5,6.512,3.459-.693.346Zm-.016,6.848v-6.64l5.68,3.666Z" fill="#a1acd6" fill-rule="evenodd"/>
    <path id="Path_21" data-name="Path 21" d="M144.479,1363.654a21.509,21.509,0,0,1-30.418,30.419" fill-rule="evenodd" opacity="0.1" style="isolation: isolate"/>
  </g>
</svg>
